<?xml version="1.0" standalone="no"?>
<!DOCTYPE svg PUBLIC "-//W3C//DTD SVG 20010904//EN"
 "http://www.w3.org/TR/2001/REC-SVG-20010904/DTD/svg10.dtd">
<svg version="1.0" xmlns="http://www.w3.org/2000/svg"
 width="96.000000pt" height="96.000000pt" viewBox="0 0 96.000000 96.000000"
 preserveAspectRatio="xMidYMid meet">
<metadata>
Created by potrace 1.14, written by Peter Selinger 2001-2017
</metadata>
<g transform="translate(0.000000,96.000000) scale(0.100000,-0.100000)"
fill="#000000" stroke="none">
<path d="M385 907 c-77 -31 -150 -93 -177 -153 -7 -15 -20 -24 -34 -24 -13 0
-35 -11 -51 -24 l-27 -24 -1 -148 c-1 -82 2 -162 7 -178 4 -16 39 -70 78 -121
49 -65 70 -100 70 -121 0 -51 11 -57 93 -57 118 1 117 0 117 94 0 48 -6 94
-15 116 -8 19 -15 37 -15 39 0 2 22 4 50 4 l49 0 -14 -41 c-17 -47 -20 -195
-5 -204 6 -4 49 -7 96 -7 94 -2 104 4 104 58 0 23 18 54 70 120 39 49 74 102
78 118 4 16 7 97 7 179 l-2 150 -27 24 c-15 12 -37 23 -49 23 -15 0 -29 11
-42 36 -28 52 -104 116 -161 137 -55 19 -154 21 -199 4z m75 -87 l0 -50 -36 0
c-32 0 -35 2 -28 22 8 28 45 78 56 78 4 0 8 -22 8 -50z m85 7 c14 -24 25 -47
25 -50 0 -4 -16 -7 -35 -7 l-35 0 0 50 c0 28 4 50 10 50 5 0 21 -20 35 -43z
m-170 16 c-4 -10 -12 -30 -17 -45 -9 -25 -15 -28 -55 -28 -41 0 -44 2 -32 17
18 22 89 73 102 73 5 0 6 -8 2 -17z m266 -15 c57 -44 60 -58 12 -58 -36 0 -40
3 -53 38 -8 20 -16 40 -18 45 -8 16 19 5 59 -25z m-307 -135 c-9 -60 -9 -60
-66 -59 -53 1 -53 1 -50 30 6 55 18 66 72 66 l49 0 -5 -37z m126 -11 l0 -48
-45 0 c-44 0 -45 0 -45 32 0 54 8 64 51 64 l39 0 0 -48z m124 32 c3 -9 6 -30
6 -48 0 -33 -1 -33 -45 -32 l-45 1 0 47 0 48 39 0 c26 0 41 -5 45 -16z m145
-2 c5 -10 11 -31 13 -48 3 -29 3 -29 -50 -30 -57 -1 -57 0 -66 59 l-5 37 49 0
c37 0 52 -4 59 -18z m-558 -171 l1 -142 39 -57 c48 -73 76 -99 90 -85 7 7 -5
32 -40 80 -52 71 -58 103 -21 103 23 0 128 -108 158 -162 17 -32 22 -57 22
-112 l0 -72 -57 2 c-32 1 -61 2 -65 3 -5 0 -8 14 -8 30 0 22 -21 56 -77 127
l-78 98 0 159 c0 127 3 160 15 167 8 5 16 8 17 6 2 -2 4 -67 4 -145z m651 121
c2 -9 4 -82 3 -162 l-1 -145 -74 -94 c-50 -63 -75 -105 -79 -130 -6 -36 -7
-36 -56 -36 -79 -1 -82 2 -75 88 7 86 19 109 104 197 42 43 65 60 80 58 30 -4
23 -42 -18 -92 -44 -55 -59 -83 -46 -91 15 -9 25 0 77 68 l48 62 2 125 c2 69
3 137 3 152 0 19 4 26 14 22 8 -3 16 -13 18 -22z m-499 -72 c2 -3 7 -29 11
-57 l7 -53 -49 0 -49 0 -16 51 c-10 28 -15 54 -13 58 5 8 103 8 109 1z m137
-52 l0 -58 -39 0 c-43 0 -46 5 -50 71 l-2 45 45 0 46 -1 0 -57z m129 13 c-4
-66 -7 -71 -50 -71 l-39 0 0 58 0 57 46 1 45 0 -2 -45z m153 14 c-2 -16 -10
-41 -18 -57 -13 -24 -20 -28 -60 -28 l-46 0 7 53 c4 28 9 54 10 57 2 3 27 5
57 5 52 -1 53 -1 50 -30z m-370 -165 c9 -22 15 -40 14 -40 -1 0 -17 18 -35 40
-26 33 -29 40 -14 40 11 0 24 -15 35 -40z m88 0 c0 -47 -11 -51 -39 -11 -28
40 -26 51 9 51 28 0 30 -2 30 -40z m100 29 c0 -15 -39 -69 -51 -69 -5 0 -9 18
-9 40 0 38 2 40 30 40 17 0 30 -5 30 -11z m53 -24 c-15 -19 -28 -33 -30 -31
-1 1 3 17 9 34 8 20 19 32 31 32 15 0 14 -5 -10 -35z"/>
</g>
</svg>
